<?xml version="1.0" standalone="no"?>
<!DOCTYPE svg PUBLIC "-//W3C//DTD SVG 20010904//EN"
 "http://www.w3.org/TR/2001/REC-SVG-20010904/DTD/svg10.dtd">
<svg version="1.0" xmlns="http://www.w3.org/2000/svg"
 width="812.000000pt" height="768.000000pt" viewBox="0 0 812.000000 768.000000"
 preserveAspectRatio="xMidYMid meet">

<g transform="translate(0.000000,768.000000) scale(0.100000,-0.100000)"
fill="#000000" stroke="none">
<path d="M3855 7364 c-65 -5 -238 -22 -345 -35 -224 -27 -577 -119 -850 -222
-155 -58 -506 -230 -595 -292 -33 -22 -78 -51 -100 -64 -153 -88 -526 -393
-635 -519 -25 -29 -78 -87 -119 -130 -109 -115 -283 -351 -389 -527 -153 -256
-318 -632 -342 -778 -5 -30 -15 -70 -24 -91 -25 -60 -55 -183 -80 -336 -66
-390 -59 -841 20 -1240 24 -124 36 -168 91 -350 139 -453 389 -893 727 -1280
136 -154 395 -391 569 -519 84 -61 331 -209 407 -243 36 -16 79 -40 97 -54 18
-13 54 -33 80 -45 26 -11 64 -31 83 -44 42 -29 228 -105 365 -150 136 -44 266
-84 290 -89 11 -2 76 -16 145 -31 558 -118 1137 -113 1710 15 107 24 133 32
356 105 263 88 449 174 727 337 54 32 102 58 106 58 4 0 16 9 26 20 10 11 22
20 27 20 10 0 266 186 288 210 3 3 32 27 65 55 240 198 531 531 712 815 130
204 265 478 335 680 16 47 33 94 38 105 32 68 106 389 130 564 52 372 51 620
-4 1021 -22 159 -80 401 -135 558 -64 186 -180 449 -244 557 -7 11 -31 54 -55
95 -255 449 -658 873 -1129 1188 -491 329 -1064 538 -1673 612 -155 19 -542
33 -675 24z m368 -126 c3 -12 4 -25 1 -30 -6 -9 -168 -11 -201 -2 -22 6 -31
33 -16 47 3 4 52 7 109 7 96 0 102 -1 107 -22z m-338 -18 c0 -23 -4 -24 -60
-27 -33 -1 -75 -5 -93 -7 -45 -7 -62 2 -62 30 0 20 6 23 48 27 26 2 74 3 107
3 57 -1 60 -2 60 -26z m630 11 c34 -6 40 -10 43 -34 l3 -28 -68 6 c-100 9
-153 24 -153 45 0 9 2 19 5 21 5 6 112 0 170 -10z m-963 -26 c0 -8 1 -20 2
-27 1 -17 -194 -51 -212 -36 -30 26 -8 43 78 60 110 21 130 21 132 3z m1257
-24 c75 -18 102 -39 77 -60 -9 -8 -35 -6 -97 8 -107 24 -119 29 -119 52 0 25
38 25 139 0z m-1582 -66 c-4 -11 -148 -53 -188 -54 -27 -1 -42 17 -31 36 4 6
50 22 102 35 86 23 96 24 108 10 7 -9 11 -21 9 -27z m1895 -12 c87 -24 98 -30
98 -50 0 -12 -4 -24 -9 -27 -10 -7 -191 50 -205 64 -10 10 -1 40 11 40 4 0 52
-12 105 -27z m-2227 -64 c4 -12 3 -24 -2 -28 -19 -15 -174 -63 -188 -57 -24 9
-17 36 13 47 15 5 34 12 42 16 48 20 107 41 117 42 6 1 15 -8 18 -20z m2534
-43 c100 -41 117 -54 98 -79 -12 -17 -15 -17 -62 4 -58 25 -139 61 -143 65 -6
4 9 44 16 44 4 0 45 -16 91 -34z m-1297 -13 c1 -10 2 -36 2 -58 l1 -40 50 -2
c392 -18 801 -106 1120 -244 50 -21 98 -39 108 -39 13 0 25 16 40 50 11 28 25
50 30 50 21 0 359 -180 442 -235 49 -33 102 -65 118 -72 15 -7 27 -14 27 -17
0 -3 -18 -31 -40 -62 -22 -32 -37 -61 -33 -64 5 -4 49 -40 98 -80 92 -76 165
-141 245 -220 25 -24 48 -45 52 -45 8 0 12 -5 113 -120 124 -141 273 -351 319
-447 14 -32 32 -58 38 -58 6 0 40 16 75 35 62 35 63 36 87 18 53 -40 294 -580
269 -604 -5 -4 -37 -15 -73 -24 -85 -22 -103 -32 -95 -53 39 -101 88 -364 111
-597 17 -165 14 -433 -6 -575 -18 -129 -27 -113 78 -129 108 -17 103 -5 72
-164 -28 -143 -126 -470 -152 -504 -7 -9 -26 -5 -76 14 -37 14 -74 28 -83 30
-13 4 -23 -12 -44 -69 -32 -84 -184 -385 -213 -423 -11 -14 -23 -22 -26 -17
-7 12 1 72 14 106 6 17 10 160 10 364 1 250 4 341 13 353 7 10 36 19 70 23 57
7 59 9 78 49 16 37 19 68 19 248 0 223 -5 285 -25 312 -12 17 -15 17 -51 0
-34 -16 -75 -62 -87 -96 -2 -6 -21 -12 -43 -12 -21 -1 -55 -2 -74 -3 -32 -2
-33 -4 -17 -16 12 -10 15 -16 7 -21 -16 -10 -40 2 -40 20 0 23 -57 20 -70 -5
-6 -11 -16 -20 -22 -20 -7 0 -7 5 1 14 18 21 -8 26 -116 23 -80 -2 -93 -4 -97
-20 -6 -25 -52 -20 -48 5 3 16 -24 17 -383 18 -377 0 -385 -1 -385 -20 0 -32
-32 -21 -44 15 -3 12 -15 21 -30 21 l-24 2 0 -210 c0 -115 -3 -212 -5 -215
-12 -11 17 -65 38 -73 13 -5 65 -10 117 -11 51 -1 99 -6 106 -12 6 -5 12 -27
12 -48 0 -22 5 -39 10 -39 6 0 8 -11 4 -25 -3 -14 -3 -37 0 -51 6 -24 8 -25
24 -10 11 9 28 14 45 11 22 -4 27 -2 27 15 0 11 -6 19 -12 17 -18 -3 -21 35
-4 58 14 20 15 20 22 1 5 -12 3 -21 -3 -23 -7 -3 -8 -13 -2 -31 5 -15 12 -40
15 -57 5 -21 8 -25 11 -12 8 33 20 16 14 -20 -7 -44 -32 -51 -42 -13 -5 22 -7
23 -14 7 -4 -10 -1 -27 10 -43 14 -22 15 -30 4 -50 -15 -29 -25 -30 -32 -3 -9
34 -44 7 -52 -41 -6 -34 -10 -40 -26 -35 -13 4 -30 -2 -50 -19 -17 -14 -35
-26 -41 -26 -6 0 -8 -10 -4 -25 4 -14 2 -25 -4 -25 -5 0 -10 7 -10 15 0 17
-17 20 -22 4 -2 -5 -24 -13 -48 -16 -25 -3 -49 -9 -55 -13 -5 -4 -82 -7 -170
-5 -142 2 -169 5 -235 27 -41 14 -76 32 -79 39 -2 8 2 10 15 5 54 -21 128 -28
243 -23 116 4 211 21 198 34 -3 3 -66 6 -139 7 -129 1 -135 2 -202 34 -38 18
-75 40 -83 47 -7 8 -27 22 -43 32 -20 11 -30 25 -30 40 0 13 -18 47 -41 75
-46 59 -133 231 -149 298 -70 282 -68 598 5 829 65 205 161 352 285 435 91 62
151 79 258 74 91 -3 175 -33 223 -76 11 -11 36 -23 54 -26 85 -16 205 -294
205 -473 0 -36 5 -51 19 -60 27 -17 757 -21 789 -4 50 27 49 16 56 797 l8 731
-24 27 c-23 27 -23 27 -65 10 -30 -12 -45 -25 -53 -48 -24 -65 -6 -61 -264
-62 -130 0 -241 -5 -246 -10 -9 -9 -51 -171 -64 -244 -10 -53 -36 -81 -84 -87
-22 -3 -49 -2 -59 1 -17 7 -17 9 3 25 12 9 27 34 35 54 8 22 19 36 27 34 17
-2 40 29 29 39 -4 4 -12 3 -19 -4 -8 -8 -18 -6 -39 9 -17 12 -30 15 -34 9 -10
-17 -19 -12 -32 18 -18 39 -58 82 -77 82 -9 0 -16 3 -16 8 0 4 -8 12 -18 17
-11 6 -52 32 -92 59 -99 65 -166 89 -285 100 -22 2 -64 7 -92 11 -36 5 -53 4
-53 -3 0 -10 79 -44 135 -58 15 -4 48 -17 75 -30 55 -26 125 -70 95 -59 -11 4
-38 14 -60 23 -96 35 -265 66 -265 48 0 -1 -25 -75 -56 -162 -31 -87 -67 -189
-80 -226 -20 -58 -45 -124 -74 -193 -5 -11 -25 -65 -45 -120 -20 -55 -42 -116
-50 -135 -7 -19 -26 -69 -41 -110 -15 -41 -30 -79 -34 -85 -18 -25 -112 -281
-139 -380 -17 -60 -46 -146 -64 -190 -19 -44 -39 -102 -47 -130 -7 -27 -19
-64 -27 -82 -13 -28 -41 -104 -104 -283 -11 -30 -24 -59 -29 -64 -6 -6 -10
-19 -10 -29 0 -11 -11 -45 -24 -76 -13 -31 -47 -121 -76 -201 -29 -80 -58
-158 -65 -175 -7 -16 -24 -64 -38 -105 -49 -143 -75 -212 -84 -221 -5 -5 -21
-2 -37 6 -40 21 -55 19 -68 -10 -10 -22 -7 -31 26 -77 31 -46 71 -98 120 -158
6 -9 26 -37 44 -62 18 -26 39 -51 46 -55 8 -4 30 -23 50 -40 19 -18 38 -33 41
-33 3 0 47 -25 97 -55 50 -30 94 -55 97 -55 3 0 31 -12 61 -26 80 -39 86 -41
190 -65 117 -28 378 -38 474 -19 188 37 351 119 469 235 34 34 53 46 67 42 15
-4 20 0 20 14 0 10 4 19 9 19 13 0 91 -187 91 -218 0 -42 11 -50 80 -61 106
-15 459 -12 491 5 31 16 79 19 79 5 0 -5 -29 -40 -65 -79 -36 -38 -65 -74 -65
-78 0 -5 17 -25 39 -45 21 -21 42 -42 46 -48 7 -13 -31 -49 -179 -170 -88 -72
-336 -241 -353 -241 -5 0 -22 22 -38 50 -27 44 -55 66 -55 42 0 -5 -51 -35
-112 -67 -62 -32 -115 -61 -118 -65 -4 -4 -164 -76 -315 -141 -11 -4 -46 -19
-77 -33 -31 -13 -59 -21 -63 -18 -3 4 -9 2 -13 -5 -4 -6 -38 -18 -77 -27 -38
-9 -118 -29 -177 -45 -58 -15 -112 -25 -119 -20 -8 5 1 10 24 14 20 4 37 11
37 16 0 5 12 8 28 7 15 -1 45 5 66 13 l39 14 -34 7 c-22 5 -14 5 23 2 32 -2
59 0 63 6 3 5 -3 10 -13 10 -11 0 -22 7 -26 15 -3 10 -19 15 -45 15 -40 0 -51
-11 -51 -52 0 -14 -5 -18 -16 -14 -9 3 -25 7 -37 7 -14 1 -9 4 13 9 l35 7 -42
2 c-24 0 -43 6 -43 11 0 6 -20 10 -45 10 -25 0 -45 -4 -45 -10 0 -6 -52 -10
-135 -10 -113 0 -135 2 -135 15 0 11 -12 15 -45 15 -32 0 -45 -4 -45 -14 0
-13 -55 -15 -365 -15 l-365 -1 0 44 0 45 58 4 c31 2 -8 4 -88 4 -80 -1 -187 0
-237 1 -86 2 -93 4 -93 22 0 17 -7 20 -45 20 -38 0 -45 3 -45 20 0 19 -7 20
-95 20 l-95 0 0 39 0 39 -82 7 c-80 7 -83 9 -126 51 -24 24 -48 44 -53 44 -5
0 -9 20 -9 44 l0 43 -67 6 c-38 4 -87 7 -110 7 l-43 0 0 40 c0 32 -4 40 -18
40 -15 0 -122 93 -122 106 0 2 -17 19 -37 39 -33 30 -44 34 -91 35 -43 0 -55
4 -59 18 -2 9 -22 31 -43 47 -23 18 -40 40 -42 55 -3 22 -9 25 -45 28 -35 3
-43 7 -43 23 0 12 -7 19 -20 19 -17 0 -20 7 -20 45 0 41 -2 45 -24 45 -21 0
-24 6 -29 53 -7 55 -32 87 -68 87 -12 0 -24 12 -32 32 -8 18 -30 51 -50 73
-27 29 -37 49 -37 73 0 25 -5 35 -20 39 -11 3 -20 11 -20 17 0 6 -11 27 -24
46 -13 19 -27 46 -31 60 -4 14 -20 39 -35 57 -16 17 -31 42 -35 55 -16 56 -61
129 -82 134 -19 5 -23 13 -23 43 0 25 -8 43 -25 60 -14 13 -25 31 -26 40 -4
59 -8 80 -18 99 -6 11 -11 29 -11 38 0 41 -43 174 -56 174 -7 0 -16 12 -20 28
-3 15 -10 40 -15 56 -5 16 -9 42 -9 59 0 16 -5 47 -11 68 -7 21 -8 46 -4 56 5
10 7 21 7 26 -9 38 -33 250 -43 367 -13 159 -5 464 13 509 18 43 26 101 16
107 -10 7 -6 52 19 199 11 69 20 95 39 114 29 29 30 41 4 48 -11 3 -17 9 -15
14 9 14 91 22 113 10 18 -9 21 -8 24 12 2 12 7 22 12 22 7 0 91 -189 218 -490
11 -27 24 -59 29 -70 5 -11 29 -69 54 -130 26 -60 55 -129 66 -152 10 -24 19
-45 19 -47 0 -2 33 -82 73 -178 41 -95 107 -252 147 -348 40 -96 92 -220 115
-275 23 -55 58 -138 78 -185 19 -47 71 -170 115 -275 44 -104 90 -213 101
-241 11 -28 29 -73 41 -100 12 -27 26 -58 30 -69 4 -11 26 -63 48 -115 62
-147 84 -203 87 -228 1 -13 10 -31 19 -40 15 -15 58 -17 429 -17 408 0 412 0
443 22 33 24 42 41 104 208 23 61 45 119 50 130 5 11 21 54 36 95 14 41 31 79
35 85 5 5 9 17 9 27 0 10 4 26 9 36 5 9 39 100 76 202 37 102 72 199 79 215 7
17 18 41 24 55 6 14 22 59 37 100 14 41 29 84 34 95 5 11 16 36 25 57 9 20 16
40 16 46 0 5 7 23 15 38 8 16 15 36 15 45 0 8 10 35 21 60 12 24 35 80 50 124
36 102 119 324 148 395 13 30 29 71 36 90 7 19 36 94 64 166 28 72 51 135 51
139 0 4 11 33 24 64 13 31 54 135 91 231 37 96 84 218 104 270 21 52 44 114
51 138 7 23 17 42 22 42 4 0 8 8 8 18 0 10 4 22 8 28 5 5 19 43 32 84 12 41
27 80 32 86 13 17 88 240 88 262 0 28 -26 46 -66 46 -35 0 -56 -17 -74 -62
-16 -37 -53 -43 -255 -42 -104 1 -346 1 -537 1 -341 -1 -348 -1 -348 -21 0
-11 -7 -20 -15 -20 -8 0 -15 7 -15 16 0 20 -20 39 -48 48 l-22 7 0 -314 0
-315 44 -11 c25 -6 60 -11 78 -11 20 0 53 -12 79 -28 34 -22 50 -27 67 -21 12
5 22 13 22 19 0 16 27 12 34 -6 3 -8 0 -27 -8 -42 -8 -15 -22 -54 -31 -87 -10
-33 -24 -71 -31 -85 -8 -14 -40 -97 -71 -185 -31 -88 -65 -184 -75 -213 -10
-29 -16 -58 -12 -63 3 -6 -3 -17 -15 -25 -12 -8 -21 -23 -21 -32 0 -10 -9 -34
-20 -54 -11 -21 -23 -55 -26 -78 -4 -22 -10 -40 -14 -40 -10 0 -40 -80 -40
-106 0 -11 -7 -29 -15 -40 -8 -10 -15 -27 -15 -37 0 -11 -6 -31 -14 -45 -19
-37 -47 -132 -41 -142 3 -4 -2 -13 -9 -19 -8 -7 -18 -31 -21 -54 -4 -23 -12
-47 -17 -54 -6 -7 -6 -19 1 -32 15 -27 14 -51 -2 -51 -6 0 -17 -12 -24 -27
-14 -35 -34 -130 -33 -163 1 -14 -2 -38 -6 -54 -4 -16 -2 -31 4 -35 5 -3 8
-19 5 -34 -5 -23 -8 -25 -20 -15 -9 7 -17 8 -21 2 -8 -11 -98 -18 -112 -9 -7
4 -5 16 4 33 21 42 34 74 41 107 l7 30 13 -30 c7 -16 14 -23 14 -14 1 9 10 42
20 74 19 57 18 91 -1 79 -5 -3 -14 -18 -19 -32 -10 -25 -12 -26 -23 -9 -13 16
-51 128 -80 232 -8 28 -24 84 -36 125 -18 64 -145 454 -195 600 -8 25 -38 114
-66 199 -28 84 -54 163 -59 175 -4 11 -13 39 -20 61 -6 22 -18 54 -25 70 -26
58 -39 125 -26 138 6 6 45 14 87 18 126 10 119 -13 119 381 l0 332 -30 8 c-50
14 -72 3 -91 -47 -11 -30 -24 -47 -39 -51 -34 -8 -1058 1 -1077 10 -24 11 -22
22 5 31 12 4 251 9 532 12 280 2 511 6 514 9 18 18 -71 22 -465 22 -274 0
-449 4 -460 10 -11 6 -33 16 -51 22 -18 7 -35 21 -39 32 -3 11 -20 26 -37 33
-20 9 -25 14 -14 15 10 0 15 5 12 10 -3 6 12 44 35 85 23 41 38 79 35 85 -3 6
9 25 27 43 53 52 98 111 98 129 0 9 6 21 13 25 14 9 39 45 86 125 19 31 43 59
53 61 25 7 43 57 28 80 -10 16 -9 18 9 12 16 -5 25 2 46 34 29 47 29 48 13 54
-7 2 1 2 17 -1 l30 -4 -23 22 c-21 20 -25 21 -41 6 -10 -9 -22 -16 -28 -16 -6
0 -13 -3 -15 -8 -1 -4 -27 -25 -55 -46 -29 -21 -53 -42 -53 -47 0 -5 -7 -9
-15 -9 -9 0 -18 -6 -21 -14 -3 -8 -24 -27 -47 -42 -22 -15 -57 -42 -76 -60
-19 -19 -38 -34 -42 -34 -4 0 -11 -9 -14 -20 -3 -11 -14 -20 -23 -20 -34 1
183 187 366 316 l117 82 18 -30 c10 -16 28 -41 41 -55 l24 -25 28 20 c50 34
125 82 129 82 3 0 29 16 59 35 200 128 606 285 890 343 54 12 103 25 108 30 5
5 5 27 -1 53 -6 24 -7 47 -3 50 18 16 291 47 452 52 47 2 113 4 148 5 53 2 62
-1 64 -15z m-1552 -72 c0 -14 -23 -30 -87 -61 -83 -40 -88 -41 -101 -23 -12
17 -6 21 75 60 100 48 113 50 113 24z m3255 -111 c8 -13 -6 -40 -20 -40 -21 0
-150 68 -170 90 -14 16 -15 22 -5 35 10 13 24 9 101 -31 49 -25 91 -49 94 -54z
m-3560 -45 c0 -10 -7 -22 -15 -26 -8 -5 -45 -26 -82 -48 -59 -35 -68 -38 -79
-24 -11 12 -9 18 11 34 14 10 28 19 32 19 4 0 31 16 60 34 57 37 73 40 73 11z
m3791 -90 c17 -11 39 -25 49 -30 15 -9 16 -15 6 -33 -15 -29 -20 -28 -83 12
-93 60 -119 86 -107 108 9 17 12 17 57 -9 26 -15 61 -37 78 -48z m-4072 -82
c7 -17 -37 -62 -61 -63 -6 0 -13 -4 -15 -8 -1 -4 -20 -20 -40 -36 -36 -27 -58
-28 -58 -3 1 11 147 126 161 127 4 0 10 -8 13 -17z m4321 -97 c22 -17 49 -36
59 -42 26 -14 29 -26 12 -49 -12 -17 -17 -18 -39 -6 -14 7 -54 39 -88 71 -55
51 -61 60 -50 74 16 18 26 14 106 -48z m-4587 -109 c9 -10 -6 -29 -63 -80 -77
-70 -89 -77 -98 -52 -4 9 16 33 55 67 34 29 66 58 72 65 14 16 21 16 34 0z
m4843 -114 c44 -36 79 -69 79 -73 0 -4 -9 -15 -21 -26 -20 -18 -21 -17 -94 61
-55 60 -71 83 -63 92 6 7 13 13 15 13 3 0 41 -30 84 -67z m-4531 27 c0 -5 -4
-10 -10 -10 -5 0 -10 5 -10 10 0 6 5 10 10 10 6 0 10 -4 10 -10z m-30 -29 c0
-12 -20 -25 -27 -18 -7 7 6 27 18 27 5 0 9 -4 9 -9z m-90 -81 c0 -5 -8 -10
-17 -10 -15 0 -16 2 -3 10 19 12 20 12 20 0z m25 -20 c3 -5 1 -10 -4 -10 -6 0
-11 5 -11 10 0 6 2 10 4 10 3 0 8 -4 11 -10z m-459 -15 c7 -18 -111 -150 -134
-150 -29 0 -19 19 47 93 67 75 78 82 87 57z m358 -11 c3 -8 2 -12 -4 -9 -6 3
-10 10 -10 16 0 14 7 11 14 -7z m-53 -57 c-13 -13 -26 -3 -16 12 3 6 11 8 17
5 6 -4 6 -10 -1 -17z m5048 -90 c41 -50 42 -51 22 -70 -22 -23 -34 -18 -64 28
-12 18 -39 54 -61 79 -31 38 -36 49 -26 61 10 12 17 10 50 -16 21 -17 56 -53
79 -82z m-5147 23 c12 -11 19 -22 17 -25 -7 -6 -49 24 -49 36 0 14 9 11 32
-11z m57 -36 c-11 -13 -10 -17 4 -25 29 -16 19 -49 -28 -97 -25 -25 -45 -41
-45 -36 0 5 18 27 40 49 45 46 48 55 21 79 -16 14 -17 21 -8 32 17 19 32 17
16 -2z m-484 -84 c4 -6 -13 -36 -37 -68 -24 -32 -50 -69 -59 -82 -14 -21 -19
-23 -32 -11 -15 12 -10 21 44 92 59 78 72 89 84 69z m5704 -77 c14 -16 45 -55
68 -88 l43 -60 -22 -19 c-21 -17 -23 -17 -33 -1 -5 10 -34 51 -63 92 -42 60
-51 78 -41 89 15 19 18 18 48 -13z m-5343 -79 c-70 -73 -82 -68 -15 6 27 30
49 59 49 64 0 6 5 5 11 -1 8 -8 -4 -27 -45 -69z m49 -4 c3 -5 -1 -10 -9 -10
-9 0 -16 5 -16 10 0 6 4 10 9 10 6 0 13 -4 16 -10z m-25 -24 c0 -3 -4 -8 -10
-11 -5 -3 -10 -1 -10 4 0 6 5 11 10 11 6 0 10 -2 10 -4z m-110 -75 c-12 -17
-26 -31 -32 -31 -10 0 -4 11 31 53 24 28 25 11 1 -22z m45 10 c3 -5 1 -12 -5
-16 -5 -3 -10 1 -10 9 0 18 6 21 15 7z m-515 -36 c0 -8 -15 -38 -33 -67 -18
-29 -39 -65 -46 -80 -12 -23 -17 -25 -33 -17 -18 10 -18 12 8 57 56 97 75 122
89 122 8 0 15 -7 15 -15z m6144 -167 c29 -55 30 -88 3 -88 -8 0 -38 41 -67 91
-50 86 -52 93 -35 105 16 12 21 9 44 -20 14 -18 39 -58 55 -88z m-6304 -117
c0 -5 -18 -48 -40 -96 -30 -65 -44 -86 -57 -83 -22 4 -22 6 23 104 27 59 44
84 56 84 10 0 18 -4 18 -9z m6397 -78 c4 -10 9 -20 13 -23 4 -3 21 -39 38 -80
28 -67 29 -76 16 -87 -21 -15 -42 -7 -50 20 -3 12 -20 53 -36 90 -23 54 -27
71 -17 83 15 19 28 18 36 -3z m-6533 -250 c-4 -16 -11 -35 -15 -44 -5 -9 -16
-39 -25 -65 -19 -59 -25 -66 -43 -54 -12 7 -11 19 9 77 37 110 38 113 60 113
17 0 19 -4 14 -27z m2860 -48 c4 -11 -1 -15 -19 -15 -29 0 -42 17 -18 23 30 8
31 8 37 -8z m3803 -24 c16 -26 62 -179 55 -185 -3 -3 -15 -6 -27 -6 -18 0 -26
14 -52 98 -16 53 -28 100 -26 105 8 14 38 7 50 -12z m-6511 -97 c17 -14 17
-15 1 -10 -10 3 -23 6 -28 6 -5 0 -9 5 -9 10 0 14 13 12 36 -6z m-39 -36 c-3
-8 -6 -5 -6 6 -1 11 2 17 5 13 3 -3 4 -12 1 -19z m110 16 c-3 -3 -12 -4 -19
-1 -8 3 -5 6 6 6 11 1 17 -2 13 -5z m43 -14 c8 -5 11 -10 5 -10 -5 0 -17 5
-25 10 -8 5 -10 10 -5 10 6 0 17 -5 25 -10z m-189 -107 c-9 -16 -10 -16 -11
-1 0 9 3 25 7 35 7 16 8 17 11 1 2 -10 -1 -25 -7 -35z m-194 -75 c-26 -112
-24 -108 -47 -108 -15 0 -20 5 -17 18 3 9 13 51 22 92 24 106 22 102 43 91 18
-10 18 -12 -1 -93z m174 -1 c-6 -6 -11 -19 -11 -28 0 -25 -19 -73 -27 -66 -3
4 -1 19 5 34 6 15 17 48 23 73 10 36 14 40 17 21 2 -13 -1 -28 -7 -34z m6699
-7 c14 -26 44 -189 36 -197 -3 -3 -16 -2 -28 4 -19 9 -26 26 -41 102 -10 50
-15 96 -12 101 10 17 34 11 45 -10z m-6750 -167 c-10 -16 -11 -15 -6 7 3 14 6
34 7 45 1 13 3 11 6 -7 2 -15 -1 -35 -7 -45z m-10 -74 c-19 -73 -23 -141 -9
-150 11 -7 9 -9 -7 -9 -20 0 -20 2 -7 87 13 90 20 119 28 111 2 -2 0 -20 -5
-39z m-170 -16 c0 -36 -19 -165 -25 -171 -2 -3 -10 -2 -18 1 -14 5 -11 52 8
165 7 40 35 44 35 5z m3684 -19 c8 -21 8 -24 -3 -24 -5 0 -11 9 -14 20 -6 24
8 27 17 4z m3304 -66 c12 -40 25 -182 17 -190 -3 -3 -16 -1 -29 5 -21 10 -24
19 -29 106 -3 52 -3 99 -1 103 12 18 33 6 42 -24z m-6665 -77 c11 -11 -59 -4
-108 10 -22 6 -12 7 34 4 36 -3 69 -9 74 -14z m3297 -16 c0 -8 -4 -15 -10 -15
-5 0 -10 7 -10 15 0 8 5 15 10 15 6 0 10 -7 10 -15z m-3287 -52 c-4 -21 -8
-182 -8 -358 0 -208 -2 -295 -8 -250 -19 171 -9 645 14 645 6 0 7 -15 2 -37z
m2727 -37 c0 -3 -4 -8 -10 -11 -5 -3 -10 -1 -10 4 0 6 5 11 10 11 6 0 10 -2
10 -4z m-3092 -138 c-3 -88 -5 -103 -20 -106 -16 -3 -18 7 -18 96 0 101 3 112
27 112 12 0 14 -20 11 -102z m5712 92 c0 -5 -7 -10 -16 -10 -8 0 -12 5 -9 10
3 6 10 10 16 10 5 0 9 -4 9 -10z m1334 -101 c9 -46 7 -187 -2 -193 -5 -3 -18
-2 -30 1 -21 5 -22 11 -22 108 0 102 3 112 36 114 6 1 14 -13 18 -30z m-3480
5 c4 -10 1 -14 -6 -12 -15 5 -23 28 -10 28 5 0 13 -7 16 -16z m-3559 -329 c9
-115 9 -109 -9 -113 -17 -4 -21 18 -31 136 -5 66 -4 72 14 72 17 0 20 -11 26
-95z m7018 -94 c-1 -110 -9 -129 -40 -113 -17 10 -18 16 -7 114 6 56 12 104
13 106 0 2 9 2 19 0 15 -3 17 -16 15 -107z m-4767 -8 c-10 -10 -19 5 -10 18 6
11 8 11 12 0 2 -7 1 -15 -2 -18z m3574 17 c0 -5 -4 -10 -10 -10 -5 0 -10 5
-10 10 0 6 5 10 10 10 6 0 10 -4 10 -10z m-3620 -38 c0 -7 -4 -10 -10 -7 -5 3
-10 16 -10 28 0 18 2 19 10 7 5 -8 10 -21 10 -28z m2760 -1 c0 -20 -13 -35
-23 -25 -7 8 4 44 14 44 5 0 9 -9 9 -19z m-2780 -56 c0 -21 -5 -19 -25 11 -16
25 -16 25 4 14 12 -6 21 -17 21 -25z m-1811 -53 c1 -7 -3 -10 -9 -7 -5 3 -10
21 -9 38 1 31 1 31 9 7 4 -14 8 -31 9 -38z m4623 -7 c-11 -21 -25 -4 -16 20 4
10 10 13 16 7 7 -7 7 -16 0 -27z m-4956 -65 c6 -36 14 -79 18 -96 5 -25 3 -33
-10 -38 -9 -4 -18 -5 -20 -4 -5 6 -34 159 -34 183 0 20 4 26 17 23 13 -2 20
-20 29 -68z m2370 22 c-9 -8 -26 10 -26 26 1 15 2 15 15 -2 8 -11 13 -21 11
-24z m-1992 -199 c8 -27 18 -69 22 -96 3 -26 10 -50 15 -53 5 -3 9 -17 8 -32
0 -24 -2 -23 -15 13 -22 59 -71 271 -78 335 -4 43 -1 36 13 -32 11 -48 26
-109 35 -135z m1996 146 c0 -11 -4 -18 -10 -14 -5 3 -7 12 -3 20 7 21 13 19
13 -6z m4569 -26 c-1 -52 -32 -176 -44 -180 -6 -2 -18 2 -27 9 -15 12 -14 21
5 111 19 89 22 97 44 97 20 0 23 -5 22 -37z m-3664 18 c3 -5 1 -12 -5 -16 -5
-3 -10 1 -10 9 0 18 6 21 15 7z m1639 1 c2 -4 0 -14 -5 -22 -8 -13 -10 -13
-19 0 -5 8 -10 18 -10 23 0 10 28 9 34 -1z m1279 -23 c-6 -6 -17 -8 -24 -3 -9
5 -8 9 7 14 23 9 31 3 17 -11z m-3818 -38 c3 -5 1 -12 -4 -15 -5 -3 -11 1 -15
9 -6 16 9 21 19 6z m375 -10 c0 -6 -4 -13 -10 -16 -5 -3 -10 1 -10 9 0 9 5 16
10 16 6 0 10 -4 10 -9z m-530 -21 c0 -5 -4 -10 -10 -10 -5 0 -10 5 -10 10 0 6
5 10 10 10 6 0 10 -4 10 -10z m980 0 c0 -5 -4 -10 -10 -10 -5 0 -10 5 -10 10
0 6 5 10 10 10 6 0 10 -4 10 -10z m-80 -20 c0 -5 -2 -10 -4 -10 -3 0 -8 5 -11
10 -3 6 -1 10 4 10 6 0 11 -4 11 -10z m626 -17 c-10 -10 -19 5 -10 18 6 11 8
11 12 0 2 -7 1 -15 -2 -18z m-3336 13 c0 -3 -4 -8 -10 -11 -5 -3 -10 -1 -10 4
0 6 5 11 10 11 6 0 10 -2 10 -4z m2500 -56 c0 -5 -2 -10 -4 -10 -3 0 -8 5 -11
10 -3 6 -1 10 4 10 6 0 11 -4 11 -10z m-2490 -36 c0 -8 -5 -12 -10 -9 -6 4 -8
11 -5 16 9 14 15 11 15 -7z m2475 -4 c3 -5 1 -10 -4 -10 -6 0 -11 5 -11 10 0
6 2 10 4 10 3 0 8 -4 11 -10z m295 0 c0 -5 -2 -10 -4 -10 -3 0 -8 5 -11 10 -3
6 -1 10 4 10 6 0 11 -4 11 -10z m-3120 -82 c11 -40 25 -83 30 -96 8 -17 6 -24
-6 -29 -22 -8 -30 3 -53 83 -25 84 -26 114 -6 114 9 0 21 -25 35 -72z m2640
57 c0 -8 -4 -15 -10 -15 -5 0 -10 7 -10 15 0 8 5 15 10 15 6 0 10 -7 10 -15z
m246 -62 c-3 -25 -9 -39 -20 -41 -9 -2 -16 1 -16 6 0 9 32 72 37 72 1 0 1 -17
-1 -37z m-118 -19 c-10 -10 -28 6 -28 24 0 15 1 15 17 -1 9 -9 14 -19 11 -23z
m4030 1 c4 -4 -58 -198 -66 -207 -4 -4 -16 0 -26 7 -19 14 -19 16 7 102 15 49
27 94 27 102 0 9 8 11 27 6 16 -4 29 -8 31 -10z m-6441 -57 c-3 -8 -6 -5 -6 6
-1 11 2 17 5 13 3 -3 4 -12 1 -19z m20 -45 c-3 -10 -5 -4 -5 12 0 17 2 24 5
18 2 -7 2 -21 0 -30z m-37 -12 c0 -9 -38 -23 -79 -27 -13 -2 -31 -10 -40 -19
-16 -14 -31 -12 -31 4 0 4 21 12 48 20 26 7 56 16 67 21 27 12 35 12 35 1z
m2600 -11 c0 -5 -4 -10 -10 -10 -5 0 -10 5 -10 10 0 6 5 10 10 10 6 0 10 -4
10 -10z m2490 -20 c0 -5 -7 -10 -16 -10 -8 0 -12 5 -9 10 3 6 10 10 16 10 5 0
9 -4 9 -10z m-5196 -90 c7 -41 -8 -21 -18 25 -5 19 -4 26 2 20 5 -5 12 -26 16
-45z m2756 7 c0 -18 -2 -19 -10 -7 -13 20 -13 43 0 35 6 -3 10 -16 10 -28z
m-2870 -87 c33 -74 36 -87 24 -100 -18 -19 -22 -14 -64 87 -34 82 -37 106 -14
101 10 -2 32 -38 54 -88z m140 18 c0 -19 -2 -20 -10 -8 -13 19 -13 30 0 30 6
0 10 -10 10 -22z m5218 -18 c-11 -32 -28 -41 -28 -14 0 23 20 55 30 49 5 -3 4
-18 -2 -35z m-2798 14 c0 -8 -4 -12 -10 -9 -5 3 -10 10 -10 16 0 5 5 9 10 9 6
0 10 -7 10 -16z m2330 -19 c0 -8 -2 -15 -4 -15 -2 0 -6 7 -10 15 -3 8 -1 15 4
15 6 0 10 -7 10 -15z m1667 4 c13 -13 11 -20 -41 -132 l-36 -77 -25 16 c-23
15 -23 18 -11 43 8 14 28 57 45 94 30 66 46 78 68 56z m-1697 -23 c0 -8 -7
-16 -15 -20 -17 -6 -18 -4 -9 18 8 20 24 21 24 2z m570 -13 c0 -5 -5 -15 -10
-23 -8 -12 -10 -11 -10 8 0 12 5 22 10 22 6 0 10 -3 10 -7z m-5260 -16 c0 -7
19 -51 43 -98 49 -97 63 -129 49 -114 -11 11 -112 209 -112 219 0 3 5 6 10 6
6 0 10 -6 10 -13z m2255 -27 c3 -5 -1 -10 -10 -10 -9 0 -13 5 -10 10 3 6 8 10
10 10 2 0 7 -4 10 -10z m41 -60 c18 0 18 -29 0 -36 -8 -3 -16 -14 -19 -25 -3
-10 -10 -19 -16 -19 -17 0 -13 40 4 46 10 4 12 11 6 21 -5 9 -6 25 -2 37 5 21
6 21 9 -1 2 -13 10 -23 18 -23z m2314 -21 c0 -6 -4 -7 -10 -4 -5 3 -10 11 -10
16 0 6 5 7 10 4 6 -3 10 -11 10 -16z m381 -42 c-8 -8 -11 -7 -11 4 0 20 13 34
18 19 3 -7 -1 -17 -7 -23z m-348 -44 c-15 -45 -32 -39 -28 9 2 24 4 44 4 46 1
2 8 -4 17 -12 12 -12 13 -23 7 -43z m-4713 27 c0 -5 20 -47 45 -92 35 -61 42
-83 33 -90 -21 -13 -28 -6 -74 81 -34 65 -41 87 -33 97 13 16 29 18 29 4z
m3314 -35 c-6 -16 -24 -21 -24 -7 0 11 11 22 21 22 5 0 6 -7 3 -15z m-3114
-36 c0 -15 -18 -19 -23 -6 -3 8 1 14 9 14 8 0 14 -4 14 -8z m6110 -15 c11 -13
8 -26 -21 -80 -19 -35 -43 -76 -55 -91 -19 -24 -23 -25 -41 -12 -21 14 -21 15
18 79 21 35 43 76 50 92 13 31 30 36 49 12z m-6090 -45 c0 -6 -4 -7 -10 -4 -5
3 -10 11 -10 16 0 6 5 7 10 4 6 -3 10 -11 10 -16z m240 0 c0 -6 -4 -7 -10 -4
-5 3 -10 11 -10 16 0 6 5 7 10 4 6 -3 10 -11 10 -16z m-88 -15 c-13 -9 -26
-13 -30 -9 -8 8 17 25 38 25 9 0 6 -6 -8 -16z m58 0 c0 -11 6 -14 22 -8 20 6
21 5 10 -8 -10 -12 -9 -18 2 -27 8 -7 18 -25 21 -41 3 -15 14 -35 25 -45 10
-9 24 -30 30 -46 13 -31 30 -39 30 -13 0 8 5 12 10 9 8 -5 7 -11 -1 -21 -10
-12 -8 -21 9 -44 12 -16 22 -34 22 -40 0 -5 5 -10 10 -10 6 0 10 5 10 11 0 5
5 7 10 4 6 -4 8 -11 5 -16 -7 -10 22 -51 71 -102 16 -18 38 -44 47 -59 9 -14
26 -29 37 -33 11 -3 20 -12 20 -18 0 -12 11 -25 96 -107 111 -107 141 -135
169 -155 15 -11 37 -29 49 -41 34 -34 86 -66 86 -54 0 6 5 8 12 4 9 -6 9 -9 0
-12 -15 -5 -16 -22 -1 -22 6 0 26 -12 45 -26 35 -27 48 -77 22 -87 -10 -4 -9
-8 2 -17 12 -9 10 -10 -9 -5 -15 5 -21 3 -17 -3 3 -6 2 -13 -4 -17 -5 -3 -10
-14 -10 -23 0 -12 3 -13 12 -4 18 18 27 15 21 -7 -3 -14 2 -21 19 -26 12 -4
41 -20 63 -35 22 -15 60 -37 85 -50 56 -28 69 -35 149 -77 40 -22 73 -33 90
-30 14 2 20 2 14 0 -25 -8 -13 -21 32 -34 25 -7 45 -17 45 -21 0 -4 3 -8 8 -8
10 0 32 51 26 61 -3 5 -1 9 4 9 18 0 20 -12 6 -38 -8 -15 -14 -33 -14 -39 0
-7 -3 -13 -6 -13 -18 0 -394 193 -441 227 -17 13 -39 26 -49 31 -11 4 -36 18
-56 31 l-38 23 35 45 c35 46 45 83 23 83 -7 0 -32 15 -54 33 -23 18 -59 46
-80 63 -147 115 -429 393 -468 462 -6 9 -26 34 -45 55 -45 48 -161 217 -161
233 0 7 -3 14 -7 16 -10 4 -63 82 -63 91 0 4 5 7 10 7 6 0 10 -7 10 -16z
m-180 -30 c0 -8 7 -14 15 -14 8 0 15 5 15 11 0 5 5 7 11 4 6 -5 4 -12 -8 -21
-25 -19 -26 -18 -46 16 -15 25 -16 29 -2 24 8 -3 15 -12 15 -20z m80 6 c0 -5
-4 -10 -10 -10 -5 0 -10 5 -10 10 0 6 5 10 10 10 6 0 10 -4 10 -10z m157 -12
c-3 -8 -6 -5 -6 6 -1 11 2 17 5 13 3 -3 4 -12 1 -19z m-310 -135 c10 -16 20
-30 24 -33 3 -3 13 -19 22 -37 9 -17 24 -39 33 -48 15 -15 15 -18 2 -31 -13
-14 -19 -10 -50 33 -20 27 -41 60 -48 74 -7 13 -17 27 -23 30 -12 8 -2 39 12
39 6 0 18 -12 28 -27z m453 -90 c-1 -10 -39 39 -40 51 0 5 9 -3 20 -17 11 -14
20 -29 20 -34z m16 43 c15 -16 18 -26 6 -26 -4 0 -13 9 -20 20 -14 23 -7 26
14 6z m5493 -14 c7 -14 -3 -34 -48 -97 -58 -81 -76 -93 -94 -64 -8 13 3 34 49
98 60 83 76 94 93 63z m-5459 -43 c0 -5 -4 -9 -10 -9 -5 0 -10 7 -10 16 0 8 5
12 10 9 6 -3 10 -10 10 -16z m-261 -223 c53 -64 59 -76 45 -87 -17 -14 -15
-16 -88 75 -42 53 -53 73 -45 83 15 17 19 14 88 -71z m441 14 c0 -5 -4 -10
-10 -10 -5 0 -10 5 -10 10 0 6 5 10 10 10 6 0 10 -4 10 -10z m5060 -67 c-96
-111 -113 -126 -128 -116 -9 5 -17 14 -19 20 -2 6 28 48 68 93 l72 81 20 -20
20 -20 -33 -38z m-4890 -118 c20 -24 6 -28 -15 -5 -10 11 -13 20 -8 20 6 0 16
-7 23 -15z m-327 -151 c-9 -25 -27 -15 -97 55 -62 61 -68 71 -56 86 12 14 21
9 86 -56 42 -42 70 -77 67 -85z m4943 -19 c-67 -63 -80 -72 -92 -60 -24 24
-16 38 59 106 71 67 72 67 92 48 20 -19 19 -20 -59 -94z m-4531 85 c3 -5 1
-10 -4 -10 -6 0 -11 5 -11 10 0 6 2 10 4 10 3 0 8 -4 11 -10z m72 -6 c-3 -3
-12 -4 -19 -1 -8 3 -5 6 6 6 11 1 17 -2 13 -5z m106 -110 c-3 -9 0 -20 8 -24
7 -5 10 -12 6 -16 -4 -4 -17 3 -28 15 -18 19 -19 25 -8 32 21 13 29 11 22 -7z
m-427 -76 c27 -24 61 -50 74 -59 16 -10 21 -21 17 -32 -9 -24 -20 -21 -57 13
-18 17 -34 30 -37 30 -14 0 -75 69 -69 79 11 17 19 14 72 -31z m4604 -48 c0
-4 -16 -15 -35 -26 -19 -10 -35 -22 -35 -26 0 -5 -6 -8 -13 -8 -7 0 -26 -13
-42 -30 -32 -34 -50 -38 -59 -13 -8 19 -3 25 84 92 60 46 66 49 82 34 10 -9
18 -19 18 -23z m-4318 -165 c46 -30 77 -57 77 -67 1 -28 -20 -22 -95 28 -87
58 -86 57 -78 78 8 20 0 23 96 -39z m323 35 c3 -6 -1 -7 -9 -4 -18 7 -21 14
-7 14 6 0 13 -4 16 -10z m-20 -38 c-8 -8 -25 10 -19 20 4 6 9 5 15 -3 4 -7 6
-15 4 -17z m3735 -26 c-1 -16 -160 -108 -177 -102 -14 6 -18 36 -4 36 4 0 41
22 82 49 54 37 77 47 86 39 7 -6 13 -16 13 -22z m-3260 -26 c0 -5 -4 -10 -10
-10 -5 0 -10 5 -10 10 0 6 5 10 10 10 6 0 10 -4 10 -10z m-45 -20 c3 -6 -4
-10 -17 -10 -18 0 -20 2 -8 10 19 12 18 12 25 0z m-15 -34 c0 -3 -4 -8 -10
-11 -5 -3 -10 -1 -10 4 0 6 5 11 10 11 6 0 10 -2 10 -4z m50 -5 c0 -5 15 -14
33 -21 17 -7 54 -23 80 -36 51 -25 77 -30 77 -15 0 5 7 11 15 15 12 4 13 2 6
-13 -9 -16 -6 -20 22 -26 18 -4 38 -7 46 -6 7 1 10 -2 6 -8 -4 -7 4 -11 20
-11 14 0 58 -9 98 -21 39 -12 93 -26 119 -33 48 -11 83 -32 38 -22 -194 43
-377 94 -435 121 -27 12 -71 31 -97 40 -56 21 -83 45 -49 45 11 0 21 -4 21 -9z
m-390 -119 c0 -21 -27 -24 -62 -6 -18 9 -35 20 -38 23 -3 4 -22 15 -42 24 -43
20 -50 29 -42 50 4 12 23 5 94 -32 50 -25 90 -52 90 -59z m556 60 c-7 -7 -46
9 -46 18 0 5 11 4 25 -2 14 -6 23 -13 21 -16z m-276 8 c0 -5 -4 -10 -10 -10
-5 0 -10 5 -10 10 0 6 5 10 10 10 6 0 10 -4 10 -10z m3084 -25 c6 -17 -11 -30
-107 -77 -57 -28 -69 -30 -77 -18 -11 19 -11 19 80 69 83 45 95 48 104 26z
m-2551 -42 c-7 -2 -19 -2 -25 0 -7 3 -2 5 12 5 14 0 19 -2 13 -5z m140 -10
c-7 -2 -21 -2 -30 0 -10 3 -4 5 12 5 17 0 24 -2 18 -5z m1207 -13 c0 -5 -4
-10 -10 -10 -5 0 -10 5 -10 10 0 6 5 10 10 10 6 0 10 -4 10 -10z m-1200 -20
c0 -5 -4 -10 -9 -10 -6 0 -13 5 -16 10 -3 6 1 10 9 10 9 0 16 -4 16 -10z
m-737 -50 c57 -24 77 -38 77 -51 0 -11 -3 -19 -6 -19 -7 0 -176 71 -183 76 -9
7 10 36 22 31 6 -2 47 -19 90 -37z m2017 2 c-14 -2 -42 -7 -64 -12 -26 -6 -35
-5 -28 2 14 14 73 25 97 19 18 -5 17 -6 -5 -9z m-1097 -11 c15 -15 -13 -14
-88 4 l-60 15 68 -4 c38 -2 74 -9 80 -15z m84 13 c-3 -3 -12 -4 -19 -1 -8 3
-5 6 6 6 11 1 17 -2 13 -5z m128 -4 c-34 -5 -64 -4 -69 1 -6 5 17 8 60 8 l69
-2 -60 -7z m1705 -15 c0 -14 -72 -51 -145 -75 -38 -13 -40 -12 -48 16 -3 8
176 82 186 77 4 -2 7 -10 7 -18z m-1430 -11 c0 -2 -9 0 -20 6 -11 6 -20 13
-20 16 0 2 9 0 20 -6 11 -6 20 -13 20 -16z m-320 0 c25 -2 108 -7 185 -11 77
-5 146 -12 153 -17 8 -5 11 -23 7 -58 -6 -70 -15 -73 -15 -5 l0 57 -67 0
c-108 0 -396 29 -408 41 -7 8 6 9 45 3 30 -4 75 -9 100 -10z m173 9 c-13 -2
-33 -2 -45 0 -13 2 -3 4 22 4 25 0 35 -2 23 -4z m187 -19 c0 -8 -4 -12 -10 -9
-5 3 -10 10 -10 16 0 5 5 9 10 9 6 0 10 -7 10 -16z m465 -86 c-27 -8 -90 -10
-82 -1 4 3 24 9 44 12 33 5 39 10 42 36 l5 30 5 -35 c5 -29 3 -36 -14 -42z
m-1597 8 c65 -22 82 -32 82 -47 0 -10 -3 -19 -7 -19 -27 0 -193 64 -193 74 0
17 12 28 24 23 6 -2 48 -16 94 -31z m1555 27 c-7 -2 -21 -2 -30 0 -10 3 -4 5
12 5 17 0 24 -2 18 -5z m651 -40 c7 -16 -8 -33 -30 -33 -6 0 -40 -9 -74 -20
-77 -25 -90 -25 -90 -2 0 15 19 24 88 44 48 14 90 26 93 27 4 0 10 -7 13 -16z
m-1027 1 c-3 -3 -12 -4 -19 -1 -8 3 -5 6 6 6 11 1 17 -2 13 -5z m297 -3 c7
-11 -62 -20 -214 -26 -74 -3 -108 -2 -95 4 11 5 61 10 110 11 50 1 108 5 130
9 56 12 63 12 69 2z m-1159 -70 c63 -13 91 -23 93 -34 5 -25 -9 -26 -96 -7
-106 23 -113 26 -106 45 7 18 0 19 109 -4z m1565 -19 c0 -15 -15 -22 -87 -35
-109 -21 -113 -21 -113 1 0 15 15 21 78 34 107 22 122 22 122 0z m-1235 -37
c33 -4 68 -9 78 -11 26 -8 21 -34 -7 -34 -28 0 -179 20 -184 24 -1 2 0 11 4
20 4 12 14 16 28 12 11 -2 48 -7 81 -11z m905 -20 c0 -16 -26 -22 -132 -31
-75 -6 -78 -5 -78 15 0 18 6 21 48 22 26 0 70 4 97 8 56 8 65 6 65 -14z m-340
-25 c0 -19 -7 -20 -139 -20 -155 0 -201 6 -201 26 0 11 32 14 170 14 163 0
170 -1 170 -20z"/>
<path d="M2136 6393 c-26 -14 -27 -17 -12 -25 13 -7 23 -5 37 8 37 33 23 42
-25 17z"/>
<path d="M2180 6365 c-17 -21 -8 -28 15 -11 11 8 14 15 8 19 -6 4 -16 0 -23
-8z"/>
<path d="M1742 5785 c-7 -8 -9 -15 -4 -15 5 0 15 7 22 15 16 19 -1 19 -18 0z"/>
<path d="M3620 5470 c-24 -3 -31 -8 -22 -13 14 -9 1081 -11 1090 -2 3 3 2 8
-2 12 -8 8 -1015 12 -1066 3z"/>
<path d="M3565 5460 c-3 -5 -1 -10 4 -10 6 0 11 5 11 10 0 6 -2 10 -4 10 -3 0
-8 -4 -11 -10z"/>
<path d="M6031 5410 c-19 -3 -36 -10 -38 -17 -6 -17 97 -25 292 -21 162 3 170
4 170 23 0 19 -7 20 -195 20 -107 0 -210 -2 -229 -5z"/>
<path d="M5948 5383 c7 -3 16 -2 19 1 4 3 -2 6 -13 5 -11 0 -14 -3 -6 -6z"/>
<path d="M5896 3653 c-2 -2 -87 -3 -190 -4 -137 -1 -186 -4 -183 -12 4 -14
597 -24 1015 -19 222 3 243 5 240 20 -3 16 -39 17 -441 17 -241 0 -440 -1
-441 -2z"/>
<path d="M3260 3280 c0 -5 5 -10 10 -10 6 0 10 5 10 10 0 6 -4 10 -10 10 -5 0
-10 -4 -10 -10z"/>
<path d="M5438 1053 c7 -3 16 -2 19 1 4 3 -2 6 -13 5 -11 0 -14 -3 -6 -6z"/>
<path d="M5395 1040 c-3 -5 1 -10 9 -10 9 0 16 5 16 10 0 6 -4 10 -9 10 -6 0
-13 -4 -16 -10z"/>
<path d="M5320 1010 c-14 -11 -40 -22 -58 -26 -21 -4 -30 -10 -24 -16 5 -5 28
1 57 16 26 15 54 26 61 26 8 0 14 5 14 10 0 16 -23 11 -50 -10z"/>
<path d="M5047 950 c3 -11 0 -20 -6 -20 -6 0 -11 -4 -11 -10 0 -14 11 -12 34
5 16 12 17 17 6 30 -18 21 -29 19 -23 -5z"/>
<path d="M5095 960 c4 -6 11 -8 16 -5 14 9 11 15 -7 15 -8 0 -12 -5 -9 -10z"/>
<path d="M5142 963 c-20 -8 -3 -23 28 -23 22 0 28 4 24 15 -6 15 -27 18 -52 8z"/>
<path d="M5076 918 c-9 -12 -14 -23 -12 -25 6 -6 36 9 36 18 0 5 12 9 28 9 21
0 24 2 12 10 -24 16 -48 11 -64 -12z"/>
<path d="M5020 896 c0 -2 7 -7 16 -10 8 -3 12 -2 9 4 -6 10 -25 14 -25 6z"/>
</g>
</svg>
